<?xml version="1.0" encoding="utf-8"?>
<svg version="1.1" id="Capa_1" xmlns="http://www.w3.org/2000/svg" xmlns:xlink="http://www.w3.org/1999/xlink" x="0px" y="0px"
	 viewBox="0 0 300 300" style="enable-background:new 0 0 300 300;" xml:space="preserve">
<style type="text/css">
	.st0{fill:#EA6868;}
</style>
<g>
	<g>
		<g>
			<g>
				<g>
					<path class="st0" d="M146.3,9.1L75.5,287.2c-0.5,1.8,0.5,3.7,2.1,4.4c1.8,0.8,3.7,0.2,4.7-1.5l68.4-106.7l66.8,106.7
						c0.6,1.1,1.9,1.8,3.2,1.8c0.5,0,1-0.2,1.5-0.3c1.8-0.8,2.6-2.6,2.3-4.4L153.7,9.1C152.9,5.7,147.2,5.7,146.3,9.1z M154.2,174.2
						c-0.6-1.1-1.9-1.8-3.2-1.8l0,0c-1.3,0-2.6,0.6-3.2,1.8l-59,92L150,25.5l61.1,239.9L154.2,174.2z"/>
				</g>
			</g>
			<g>
				<g>
					<path class="st0" d="M220.8,293.1c-1.8,0-3.4-1-4.2-2.3l-65.8-105.1L83.4,290.8c-1.3,1.9-4,2.9-6.1,1.9c-2.3-1-3.4-3.4-2.9-5.8
						L145.1,8.8c0.5-2.1,2.4-3.4,4.9-3.4s4.4,1.3,4.9,3.4l70.8,278.1c0.6,2.4-0.6,4.9-2.9,5.8C222.1,292.9,221.5,293.1,220.8,293.1z
						 M150.8,181.2l1,1.6l66.8,106.7c0.6,1,1.9,1.5,3.2,1c1.1-0.5,1.8-1.8,1.5-3.1L152.4,9.3c-0.3-1.1-1.6-1.6-2.6-1.6
						s-2.3,0.5-2.6,1.6L76.4,287.4c-0.3,1.3,0.3,2.6,1.5,3.1c1.1,0.5,2.6,0,3.2-1L150.8,181.2z M85.6,273.2L150,20.6l64.2,251.9
						l-61.1-97.7c-1-1.6-3.4-1.5-4.4,0L85.6,273.2z"/>
				</g>
			</g>
		</g>
	</g>
</g>
</svg>
