<?xml version="1.0" encoding="utf-8"?>
<svg version="1.1" xmlns="http://www.w3.org/2000/svg" xmlns:xlink="http://www.w3.org/1999/xlink" x="0px" y="0px"
	 viewBox="0 0 256 256" style="enable-background:new 0 0 256 256;" xml:space="preserve">
<g id="Layer_1">
</g>
<g id="Layer_2">
	<g>
		<path d="M77.4,175.5H64.1v23.7h13.2c3.7,0,6.7-3,6.7-6.7v-10.2C84.1,178.5,81.1,175.5,77.4,175.5z"/>
		<path d="M222.9,177.6v-31.2h-190v31.2v31.6v32.3c0,7,5.7,12.8,12.8,12.8h164.4c7,0,12.8-5.7,12.8-12.8L222.9,177.6
			L222.9,177.6z M94.7,192.4c0,9.6-7.8,17.3-17.3,17.3H64.1v18.2c0,2.9-2.4,5.3-5.3,5.3s-5.3-2.4-5.3-5.3v-23.5v-34.3
			c0-2.9,2.4-5.3,5.3-5.3h18.5c9.6,0,17.3,7.8,17.3,17.3V192.4z M147.9,214.7c0,10.2-8.3,18.6-18.6,18.6H112c-2.9,0-5.3-2.4-5.3-5.3
			v-57.8c0-2.9,2.4-5.3,5.3-5.3h17.3c10.2,0,18.6,8.3,18.6,18.6V214.7z M196.9,175.5h-25.3v18.3h14.7c2.9,0,5.3,2.4,5.3,5.3
			s-2.4,5.3-5.3,5.3h-14.7v23.6c0,2.9-2.4,5.3-5.3,5.3s-5.3-2.4-5.3-5.3v-57.8c0-2.9,2.4-5.3,5.3-5.3h30.6c2.9,0,5.3,2.4,5.3,5.3
			S199.8,175.5,196.9,175.5z"/>
		<path d="M129.3,175.5h-12v47.2h12c4.4,0,8-3.6,8-8v-31.2C137.3,179,133.7,175.5,129.3,175.5z"/>
		<path d="M222.9,59c0-3.4-1.3-6.6-3.7-9L174.3,5.1c-2.4-2.4-5.6-3.7-9-3.7H45.6c-7,0-12.8,5.7-12.8,12.8v108.5v18.9
			h190V59z M164.2,86.3l-34.3,34.3c-0.5,0.5-1.3,0.8-2,0.8s-1.4-0.3-2-0.8L91.6,86.3c-0.8-0.8-1-2-0.6-3.1c0.4-1,1.5-1.7,2.6-1.7
			H107V48.4c0-1.6,1.3-2.8,2.8-2.8h36c1.6,0,2.8,1.3,2.8,2.8v33.1h13.5c1.1,0,2.2,0.7,2.6,1.7C165.2,84.3,165,85.5,164.2,86.3z"/>
	</g>
</g>
</svg>
