<?xml version="1.0" encoding="utf-8"?>
<svg version="1.1" id="Capa_1" xmlns="http://www.w3.org/2000/svg" xmlns:xlink="http://www.w3.org/1999/xlink" x="0px" y="0px"
	 viewBox="0 0 490 490" style="enable-background:new 0 0 490 490;" xml:space="preserve">
<style type="text/css">
	.st0{fill:#FFFFFF;}
</style>
<g>
	<path class="st0" d="M65.4,6v157.1c0,3.3-2.9,6-6.5,6H33.6c-3.6,0-6.5,2.7-6.5,6v189.6h0l36.3,33.8c1.2,1.1,1.9,2.7,1.9,4.3l0,81.2
		c0,3.3,2.9,6,6.5,6h383.8c3.6,0,6.5-2.7,6.5-6V104.9c0-1.6-0.7-3.1-1.9-4.3l-106-98.9c-1.2-1.1-2.9-1.8-4.6-1.8H71.8
		C68.2,0,65.4,2.7,65.4,6z M431.3,357.4h-374c-3.8,0-6.9-4-6.9-9V203.2c0-5,3.1-9,6.9-9h374c3.8,0,6.9,4,6.9,9v145.2
		C438.2,353.4,435.1,357.4,431.3,357.4z M340.2,27.6l70.8,66c7.2,6.7,2.1,18.2-8.1,18.2h-70.8c-6.3,0-11.4-4.8-11.4-10.7v-66
		C320.7,25.6,333,20.9,340.2,27.6z"/>
	<path class="st0" d="M136.9,207.4h-6.5H87.9c-5.8,0-10.5,4.9-10.5,11v115.5c0,6.1,4.7,11,10.5,11h4c5.8,0,10.5-4.9,10.5-11v-22.4
		c0-6.1,4.7-11,10.5-11h18.9l5.8-0.1c18,0,29.9-3,35.8-9.1c5.9-6.1,8.9-18.3,8.9-36.7c0-18.5-3.1-31-9.3-37.5
		C166.6,210.6,154.7,207.4,136.9,207.4z M152.2,274.4c-3.1,2.7-10.2,4.1-21.5,4.1h-17.9c-5.8,0-10.5-4.9-10.5-11v-27.2
		c0-6.1,4.7-11,10.5-11h20.4c10.6,0,17.2,1.4,19.8,4.2c2.5,2.8,3.8,10,3.8,21.6C156.8,265.2,155.3,271.6,152.2,274.4z"/>
	<path class="st0" d="M262.6,207.4h-54.1c-5.8,0-10.5,4.9-10.5,11v115.5c0,6.1,4.7,11,10.5,11h54.9c20.7,0,34.1-4.9,39.9-14.6
		c5.9-9.8,8.9-31.8,8.9-66.1c0-21-3.7-35.7-11-44.1C293.8,211.5,281,207.4,262.6,207.4z M281.6,314.2c-3.5,5.8-11.2,8.6-23.1,8.6
		h-25c-5.8,0-10.5-4.9-10.5-11v-71.6c0-6.1,4.7-11,10.5-11H260c11.6,0,19,2.7,22.1,8.2c3.1,5.5,4.7,18.4,4.7,38.7
		C286.9,295.8,285.1,308.5,281.6,314.2z"/>
	<path class="st0" d="M340.9,344.8h3.9c5.8,0,10.5-4.9,10.5-11v-34.5c0-6.1,4.7-11,10.5-11h37.9c5.8,0,10.5-4.9,10.5-11v0
		c0-6.1-4.7-11-10.5-11h-37.9c-5.8,0-10.5-4.9-10.5-11v-15.1c0-6.1,4.7-11,10.5-11h41.1c5.8,0,10.5-4.9,10.5-11v0
		c0-6.1-4.7-11-10.5-11h-66c-5.8,0-10.5,4.9-10.5,11v115.5C330.4,339.9,335.1,344.8,340.9,344.8z"/>
</g>
</svg>
